# AST/ASF file generated using VICON BodyLanguage
# -----------------------------------------------
:version 1.10
:name VICON
:units
  mass 1.0
  length 0.45
  angle deg
:documentation
   .ast/.asf automatically generated from VICON data using
   VICON BodyBuilder and BodyLanguage model FoxedUp or BRILLIANT.MOD
:root
   order TX TY TZ RX RY RZ
   axis XYZ
   position 0 0 0  
   orientation 0 0 0 
:bonedata
  begin
     id 1 
     name lhipjoint
     direction 0.567149 -0.783011 0.255413 
     length 2.28399 
     axis 0 0 0  XYZ
  end
  begin
     id 2 
     name lfemur
     direction 0.34202 -0.939693 0  
     length 7.34031  
     axis 0 0 20  XYZ
    dof rx ry rz
    limits (-160.0 20.0)
           (-70.0 70.0)
           (-60.0 70.0)
  end
  begin
     id 3 
     name ltibia
     direction 0.34202 -0.939693 0   
     length 6.9833   
     axis 0 0 20   XYZ
    dof rx
    limits (-10.0 170.0)
  end
  begin
     id 4 
     name lfoot
     direction 0.136498 -0.375025 0.91691   
     length 2.33665   
     axis -90 7.62852e-016 20   XYZ
    dof rx rz
    limits (-45.0 90.0)
           (-70.0 20.0)
  end
  begin
     id 5 
     name ltoes
     direction 1.5367e-011 -4.21617e-011 1   
     length 1.15039   
     axis -90 7.62852e-016 20   XYZ
    dof rx
    limits (-90.0 20.0)
  end
  begin
     id 6 
     name rhipjoint
     direction -0.602854 -0.758518 0.247423   
     length 2.35775  
     axis 0 0 0  XYZ 
  end
  begin
     id 7 
     name rfemur
     direction -0.34202 -0.939693 0   
     length 7.43932   
     axis 0 0 -20   XYZ
    dof rx ry rz
    limits (-160.0 20.0)
           (-70.0 70.0)
           (-70.0 60.0)
  end
  begin
     id 8 
     name rtibia
     direction -0.34202 -0.939693 0   
     length 7.11893   
     axis 0 0 -20   XYZ
    dof rx
    limits (-10.0 170.0)
 end
 begin
     id 9 
     name rfoot
     direction -0.131771 -0.362037 0.922803   
     length 2.53019  
     axis -90 -7.62852e-016 -20   XYZ
    dof rx rz
    limits (-45.0 90.0)
           (-20.0 70.0)
  end
  begin
     id 10 
     name rtoes
     direction -1.53733e-011 -4.21932e-011 1   
     length 1.24596   
     axis -90 -7.62852e-016 -20   XYZ
    dof rx
    limits (-90.0 20.0)
  end
  begin
     id 11 
     name lowerback
     direction 0.0235427 0.999023 -0.0374125   
     length 2.21768   
     axis 0 0 0   XYZ
    dof rx ry rz
    limits (-20.0 45.0)
           (-30.0 30.0)
           (-30.0 30.0)
  end
  begin
     id 12 
     name upperback
     direction 0.0302156 0.996818 -0.073759   
     length 2.20352   
     axis 0 0 0   XYZ
    dof rx ry rz
    limits (-20.0 45.0)
           (-30.0 30.0)
           (-30.0 30.0)
  end
  begin
     id 13 
     name thorax
     direction 0.0187169 0.998235 -0.0563532   
     length 2.22103   
     axis 0 0 0   XYZ
    dof rx ry rz
    limits (-20.0 45.0)
           (-30.0 30.0)
           (-30.0 30.0)
  end
  begin
     id 14 
     name lowerneck
     direction -0.119528 0.987423 0.103481   
     length 1.72948   
     axis 0 0 0   XYZ
    dof rx ry rz
    limits (-20.0 45.0)
           (-30.0 30.0)
           (-30.0 30.0)
  end
  begin
     id 15 
     name upperneck
     direction 0.248049 0.963095 -0.104496   
     length 1.74979   
     axis 0 0 0   XYZ
    dof rx ry rz
    limits (-20.0 45.0)
           (-30.0 30.0)
           (-30.0 30.0)
  end
  begin
     id 16
     name head
     direction 0.0903589 0.994284 -0.056876  
     length 1.78268  
     axis 0 0 0   XYZ
    dof rx ry rz
    limits (-20.0 45.0)
           (-30.0 30.0)
           (-30.0 30.0)
  end
  begin
     id 17 
     name lclavicle
     direction 0.946008 0.242039 -0.215608  
     length 3.80783  
     axis 0 0 0   XYZ
    dof ry rz
    limits (-20.0 10.0)
           (0.0 20.0)
  end
  begin
     id 18 
     name lhumerus
     direction 1 -4.48991e-011 -2.25695e-027   
     length 4.83125   
     axis 180 -30 -90   XYZ
    dof rx ry rz
    limits (-60.0 90.0)
           (-90.0 90.0)
           (-90.0 90.0)
  end
  begin
     id 19
     name lradius
     direction 0.999991 0.00366712 -0.00211721   
     length 3.00391   
     axis 180 -30 -90   XYZ
    dof rx
    limits (-10.0 170.0)
  end
  begin
     id 20
     name lwrist
     direction 0.999991 0.00393016 -0.00141978   
     length 1.50195   
     axis -1.00488e-014 90 90   XYZ
    dof ry
    limits (-180.0 0.0)
 end
  begin
     id 21 
     name lhand
     direction 1 -4.49123e-011 2.72098e-026   
     length 1.2717   
     axis -1.73687e-014 90 90   XYZ
    dof rx rz
    limits (-90.0 90.0)
           (-45.0 45.0)
  end
  begin
     id 22 
     name lfingers
     direction 1 -4.48678e-011 5.4479e-026   
     length 1.02528   
     axis -3.47372e-014 90 90   XYZ
    dof rx
    limits (0.0 90.0)
  end
  begin
     id 23
     name lthumb
     direction 0.707107 -6.34851e-011 0.707107   
     length 1.4721   
     axis -90 45 -1.62303e-014   XYZ
    dof rx rz
    limits (-45.0 45.0)
           (-45.0 45.0)
  end
  begin
     id 24 
     name rclavicle
     direction -0.981723 0.189447 -0.0181673   
     length 3.74989  
     axis 0 0 0   XYZ 
    dof ry rz
    limits (-10.0 20.0)
           (-20.0 0.0)
  end
  begin
     id 25 
     name rhumerus
     direction -1 -4.48985e-011 2.38206e-027  
     length 4.61118   
     axis 180 30 90   XYZ
    dof rx ry rz
    limits (-90.0 60.0)
           (-90.0 90.0)
           (-90.0 90.0)
  end
  begin
     id 26 
     name rradius
     direction -1 -4.48977e-011 7.41019e-027   
     length 2.91491   
     axis 180 30 90   XYZ
    dof rx
    limits (-10.0 170.0)
  end
  begin
     id 27 
     name rwrist
     direction -1 -4.48549e-011 1.3624e-026   
     length 1.45745   
     axis -1.00488e-014 -90 -90   XYZ
    dof ry
    limits (-180.0 0.0)
  end
  begin
     id 28
     name rhand
     direction -1 -4.49107e-011 2.72109e-026   
     length 1.30769   
     axis -1.73687e-014 -90 -90   XYZ
    dof rx rz
    limits (-90.0 90.0)
           (-45.0 45.0)
  end
  begin
     id 29
     name rfingers
     direction -1 -4.48919e-011 5.44468e-026   
     length 1.05429   
     axis -3.47372e-014 -90 -90   XYZ
    dof rx
    limits (0.0 90.0)
  end
  begin
     id 30
     name rthumb
     direction -0.707107 -6.35315e-011 0.707107   
     length 1.51376   
     axis -90 -45 1.62303e-014   XYZ
    dof rx rz
    limits (-45.0 45.0)
           (-45.0 45.0)
  end
:hierarchy
  begin
    root lhipjoint rhipjoint lowerback
    lhipjoint lfemur
    lfemur ltibia
    ltibia lfoot
    lfoot ltoes
    rhipjoint rfemur
    rfemur rtibia
    rtibia rfoot
    rfoot rtoes
    lowerback upperback
    upperback thorax
    thorax lowerneck lclavicle rclavicle
    lowerneck upperneck
    upperneck head
    lclavicle lhumerus
    lhumerus lradius
    lradius lwrist
    lwrist lhand lthumb
    lhand lfingers
    rclavicle rhumerus
    rhumerus rradius
    rradius rwrist
    rwrist rhand rthumb
    rhand rfingers
  end

#!OML:ASF X:\für Bonn\!DataBase\2005_08_11_Bastian_Final\c3d\Bastian.ASF
:FULLY-SPECIFIED
:DEGREES
17
root -1.55975 17.2064 1.98036 174.507 -4.69002 -176.287
lowerback 14.896 -0.728175 -1.07814
upperback 5.22399 -1.77668 0.371883
thorax -2.78235 -1.17673 1.31237
lowerneck -9.86989 -4.91711 -4.25273
upperneck -4.05675 -6.93992 13.0697
head 1.04822 -3.60184 4.33205
rclavicle 0 1.94809e-014
rhumerus 74.4407 18.5083 15.7702
rradius 38.6615
rwrist -65.3479
rhand -47.3444 -9.15432
rfingers 7.12502
rthumb -20.0383 -38.141
lclavicle 0 1.94809e-014
lhumerus 78.7034 -20.8588 -43.0454
lradius 31.4151
lwrist 33.8582
lhand -42.0539 22.0172
lfingers 7.12502
lthumb -14.947 51.4578
rfemur -11.3674 0.938646 25.1291
rtibia 42.9084
rfoot -22.6677 -7.67685
rtoes -8.02839
lfemur -8.38871 2.41295 -16.5716
ltibia 37.1699
lfoot -17.5424 -6.12172
ltoes -11.3058
18
root -1.55158 17.1938 1.98584 174.356 -4.72122 -176.63
lowerback 15.1379 -0.689393 -1.35727
upperback 5.25377 -1.78504 0.274739
thorax -2.8757 -1.18641 1.37661
lowerneck -9.90442 -4.9157 -4.20785
upperneck -3.98749 -6.93126 12.8873
head 1.06313 -3.59047 4.26826
rclavicle -3.03147e-014 -2.38542e-015
rhumerus 74.5309 18.8114 15.7853
rradius 38.6928
rwrist -65.2928
rhand -47.3937 -9.12779
rfingers 7.12502
rthumb -20.0857 -38.1095
lclavicle -3.03147e-014 -2.38542e-015
lhumerus 78.6729 -21.2138 -42.3762
lradius 31.3553
lwrist 33.3753
lhand -42.0096 21.961
lfingers 7.12502
lthumb -14.9044 51.4049
rfemur -11.4212 0.621762 24.7216
rtibia 43.2966
rfoot -22.7508 -7.43187
rtoes -7.78566
lfemur -8.33647 2.40377 -16.9308
ltibia 37.3695
lfoot -17.6257 -6.09503
ltoes -11.5079
19
root -1.54366 17.1796 1.99151 174.213 -4.7548 -177.037
lowerback 15.3708 -0.642199 -1.69523
upperback 5.29475 -1.79536 0.160784
thorax -2.95108 -1.19829 1.45628
lowerneck -9.9416 -4.91432 -4.16272
upperneck -3.9469 -6.92253 12.7072
head 1.07015 -3.58114 4.20562
rclavicle 1.51076e-014 -1.51076e-014
rhumerus 74.5918 19.1464 15.6026
rradius 38.6634
rwrist -65.1146
rhand -47.4524 -8.95095
rfingers 7.12502
rthumb -20.1422 -37.9268
lclavicle 1.51076e-014 -1.51076e-014
lhumerus 78.6411 -21.5747 -41.6328
lradius 31.2131
lwrist 32.806
lhand -41.9545 21.8787
lfingers 7.12502
lthumb -14.8514 51.3265
rfemur -11.4966 0.310172 24.2415
rtibia 43.7282
rfoot -22.8609 -7.16371
rtoes -7.51477
lfemur -8.3171 2.42346 -17.3588
ltibia 37.6153
lfoot -17.7196 -6.08372
ltoes -11.7033
20
root -1.53488 17.1633 1.99524 174.053 -4.83874 -177.427
lowerback 15.6048 -0.610986 -2.01881
upperback 5.335 -1.82718 0.0410544
thorax -3.02727 -1.2207 1.52558
lowerneck -9.89946 -4.91979 -4.13272
upperneck -3.9565 -6.93141 12.2019
head 1.12264 -3.59202 4.48392
rclavicle -1.44119e-014 -4.37326e-015
rhumerus 74.6637 19.4936 15.4236
rradius 38.6407
rwrist -65.0103
rhand -47.5141 -8.73331
rfingers 7.12502
rthumb -20.2015 -37.7029
lclavicle -1.44119e-014 -4.37326e-015
lhumerus 78.621 -21.9455 -40.8619
lradius 31.0396
lwrist 32.1354
lhand -41.8854 21.8276
lfingers 7.12502
lthumb -14.7848 51.2802
rfemur -11.5642 -0.0139072 23.7809
rtibia 44.2043
rfoot -23.03 -6.9131
rtoes -7.28826
lfemur -8.32326 2.4245 -17.7604
ltibia 37.9473
lfoot -17.8378 -6.13144
ltoes -11.6326
21
root -1.52685 17.141 2.0015 173.839 -4.90696 -177.65
lowerback 15.8937 -0.591667 -2.16154
upperback 5.39583 -1.85386 -0.0368995
thorax -3.11465 -1.24221 1.53708
lowerneck -9.94926 -4.93703 -4.08507
upperneck -3.88316 -6.94965 12.0433
head 1.1472 -3.59439 4.41414
rclavicle -6.4605e-015 -2.54444e-014
rhumerus 74.7678 19.7677 15.5324
rradius 38.7091
rwrist -65.2059
rhand -47.67 -8.39869
rfingers 7.12502
rthumb -20.3513 -37.3523
lclavicle -6.4605e-015 -2.54444e-014
lhumerus 78.5928 -22.2603 -40.2841
lradius 30.9255
lwrist 31.6683
lhand -41.8703 21.7756
lfingers 7.12502
lthumb -14.7702 51.2293
rfemur -11.6187 -0.382496 23.4949
rtibia 44.7126
rfoot -23.1922 -6.61413
rtoes -6.96906
lfemur -8.37683 2.4953 -17.9676
ltibia 38.4239
lfoot -18.0175 -6.24902
ltoes -11.956
22
root -1.51821 17.1126 2.00754 173.559 -4.96597 -177.742
lowerback 16.2249 -0.574575 -2.19515
upperback 5.49282 -1.87351 -0.0639514
thorax -3.18774 -1.26379 1.53988
lowerneck -10.0402 -4.969 -4.05039
upperneck -3.82502 -6.98643 11.8791
head 1.17585 -3.60621 4.34316
rclavicle -5.56597e-015 1.39149e-014
rhumerus 74.9126 19.9105 15.9739
rradius 38.868
rwrist -65.6852
rhand -47.8741 -8.08836
rfingers 7.12502
rthumb -20.5474 -37.021
lclavicle -5.56597e-015 1.39149e-014
lhumerus 78.5551 -22.4868 -39.9154
lradius 30.8766
lwrist 31.466
lhand -41.8867 21.6623
lfingers 7.12502
lthumb -14.786 51.1149
rfemur -11.6307 -0.756229 23.3563
rtibia 45.2651
rfoot -23.4146 -6.33317
rtoes -6.8129
lfemur -8.4391 2.50354 -18.0261
ltibia 39.0598
lfoot -18.2632 -6.34904
ltoes -11.8864
23
root -1.50981 17.0798 2.01364 173.281 -5.01893 -177.768
lowerback 16.551 -0.570802 -2.15993
upperback 5.60012 -1.90094 -0.0740214
thorax -3.24781 -1.29007 1.52285
lowerneck -10.139 -4.9912 -4.06101
upperneck -3.782 -7.00729 11.7553
head 1.20353 -3.61068 4.29676
rclavicle 1.30204e-014 2.42517e-014
rhumerus 75.0565 19.964 16.3934
rradius 39.0218
rwrist -66.0797
rhand -48.0253 -7.89481
rfingers 7.12502
rthumb -20.6928 -36.8117
lclavicle 1.30204e-014 2.42517e-014
lhumerus 78.5072 -22.6549 -39.746
lradius 30.884
lwrist 31.4524
lhand -41.913 21.5794
lfingers 7.12502
lthumb -14.8114 51.0301
rfemur -11.6752 -1.08827 23.2889
rtibia 45.8632
rfoot -23.6444 -6.06815
rtoes -6.44247
lfemur -8.59999 2.55021 -18.0059
ltibia 39.8764
lfoot -18.5938 -6.50066
ltoes -12.0321
24
root -1.50045 17.0407 2.01954 172.997 -5.0866 -177.809
lowerback 16.9019 -0.556052 -2.14179
upperback 5.70173 -1.91806 -0.092571
thorax -3.32679 -1.31115 1.50572
lowerneck -10.2292 -5.03386 -4.03828
upperneck -3.72984 -7.05854 11.615
head 1.23291 -3.63046 4.23622
rclavicle -1.13307e-014 -1.03368e-014
rhumerus 75.1712 20.0005 16.9066
rradius 39.1724
rwrist -66.5108
rhand -48.1642 -7.70716
rfingers 7.12502
rthumb -20.8261 -36.6094
lclavicle -1.13307e-014 -1.03368e-014
lhumerus 78.4961 -22.78 -39.643
lradius 30.9068
lwrist 31.5016
lhand -41.9633 21.4905
lfingers 7.12502
lthumb -14.8598 50.9376
rfemur -11.7574 -1.45918 23.2058
rtibia 46.5379
rfoot -23.9171 -5.81477
rtoes -6.27836
lfemur -8.83149 2.613 -17.9875
ltibia 40.8504
lfoot -18.9296 -6.71651
ltoes -11.7389
25
root -1.4896 16.995 2.0253 172.696 -5.13601 -177.789
lowerback 17.2784 -0.542081 -2.08656
upperback 5.80821 -1.93164 -0.0832662
thorax -3.41376 -1.33142 1.49716
lowerneck -10.3388 -5.06571 -4.01443
upperneck -3.67333 -7.09566 11.467
head 1.2654 -3.64291 4.17326
rclavicle 6.75868e-015 1.66979e-014
rhumerus 75.2731 20.005 17.3045
rradius 39.2728
rwrist -66.691
rhand -48.2405 -7.65989
rfingers 7.12502
rthumb -20.8995 -36.5541
lclavicle 6.75868e-015 1.66979e-014
lhumerus 78.4715 -22.8973 -39.625
lradius 30.9373
lwrist 31.5904
lhand -42.058 21.411
lfingers 7.12502
lthumb -14.9511 50.8513
rfemur -11.864 -1.80203 23.1984
rtibia 47.2939
rfoot -24.2275 -5.61799
rtoes -6.07634
lfemur -9.1373 2.71438 -17.8924
ltibia 41.9931
lfoot -19.3442 -6.96586
ltoes -11.581
26
root -1.47971 16.9409 2.03096 172.368 -5.21024 -177.743
lowerback 17.6782 -0.54834 -1.99794
upperback 5.91948 -1.96825 -0.0686135
thorax -3.50712 -1.36382 1.48079
lowerneck -10.4154 -5.09328 -3.97659
upperneck -3.66341 -7.12749 11.3122
head 1.27499 -3.65633 4.10678
rclavicle 8.34896e-015 -6.36111e-015
rhumerus 75.3733 19.9876 17.5952
rradius 39.3009
rwrist -66.6474
rhand -48.2427 -7.70994
rfingers 7.12502
rthumb -20.9016 -36.6039
lclavicle 8.34896e-015 -6.36111e-015
lhumerus 78.4149 -23.0197 -39.6556
lradius 30.9964
lwrist 31.6899
lhand -42.1894 21.4026
lfingers 7.12502
lthumb -15.0776 50.8335
rfemur -11.9952 -2.13489 23.2117
rtibia 48.1497
rfoot -24.5748 -5.43595
rtoes -5.75253
lfemur -9.49508 2.76596 -17.7735
ltibia 43.2841
lfoot -19.819 -7.21347
ltoes -11.5004
